<?xml version="1.0" encoding="utf-8"?>
<!-- Generator: Adobe Illustrator 28.0.0, SVG Export Plug-In . SVG Version: 6.00 Build 0)  -->
<svg version="1.1" id="Layer_1" xmlns="http://www.w3.org/2000/svg" xmlns:xlink="http://www.w3.org/1999/xlink" x="0px" y="0px"
	 viewBox="0 0 127.65 127.11" style="enable-background:new 0 0 127.65 127.11;" xml:space="preserve">
<style type="text/css">
	.st0{fill:none;stroke:#000000;stroke-width:3;stroke-miterlimit:10;}
</style>
<g>
	<g>
		
			<ellipse transform="matrix(0.1602 -0.9871 0.9871 0.1602 -9.4341 117.8194)" class="st0" cx="64.52" cy="64.45" rx="57.14" ry="57.14"/>
	</g>
	<g>
		<g>
			<path d="M57.45,90.73v-0.77c4.47-0.77,8.56-1.08,8.71-9.71c0.08-3.24,0.23-10.02,0.23-16.42c0-6.48,0.08-17.81,0-23.2
				c-5.7,13.95-10.87,25.75-20.58,50.11h-1.08L24.61,41.08c0,3.31,0.08,17.58,0.08,22.74c0,5.47,0.15,10.1,0.15,13.34
				c0,9.02,2.24,12.41,8.4,12.8v0.77H14.58v-0.77c6.63-1.08,8.4-3.62,8.63-14.11c0.08-3.47,0.15-8.79,0.15-12.26
				c0-4.78-0.08-8.71-0.15-12.95c-0.15-10.79-1.08-11.33-7.32-13.03v-0.69h16.65c0.23,1.08,1.46,4.78,2.47,7.25l9.71,24.44
				c1.08,2.78,2.54,6.48,4.16,10.41c6.78-15.88,11.87-28.14,17.35-42.09h16.88v0.69c-7.02,1-8.02,3.01-8.33,12.87
				c-0.15,5.17-0.23,8.25-0.23,13.11c0,5.47,0.08,14.18,0.15,16.96c0.15,7.79,2.62,8.79,8.4,9.41v0.77H57.45z"/>
		</g>
		<g>
			<path d="M104.85,81.36c-2.24-4.15-3.31-6.91-5.16-10.44c-2.7-4.99-6.32-6.37-12.03-6.76c8.02-1,15.19-4.99,15.19-13.66
				c0-5.07-2.31-8.9-6.86-11.28c-4.24-2.23-8.94-2.3-14.88-2.3c-2.16,0-4.07,0.01-5.85,0.02c0.38,0.26,0.71,0.59,1,0.98c0,0,0,0,0,0
				c1-0.08,1.7-0.08,2.85-0.08c3.01,0,7.17,0.61,9.94,2.76c3.31,2.61,4.47,5.99,4.47,10.21c0,3.99-1.08,7.52-3.93,9.83
				c-3.16,2.53-6.48,2.99-11.25,2.99H76.1c0-0.02,0-0.04,0-0.05c-0.33,0.26-0.71,0.47-1.14,0.61l0,0c0.43,0.12,0.81,0.31,1.15,0.54
				c0-0.01,0-0.02,0-0.03c6.09,0,9.56,1.54,11.56,3.84c3.24,3.53,5.32,7.83,7.25,11.67c2.08,4.22,3.62,7.98,5.78,10.52h16.57v-0.77
				C110.56,89.27,107.63,86.51,104.85,81.36z"/>
		</g>
	</g>
	<rect x="54.48" y="8.73" width="3" height="17.11"/>
	<rect x="61.8" y="8.73" width="3" height="17.11"/>
	<rect x="69.12" y="8.73" width="3" height="17.11"/>
</g>
</svg>
